<?xml version="1.0" encoding="UTF-8"?>
<svg xmlns="http://www.w3.org/2000/svg" width="1600" height="900" viewBox="0 0 1600 900" role="img" aria-labelledby="title desc">
  <title id="title">냉국수 집밥노트 초보자 레시피 포스터</title>
  <desc id="desc">냉국수 레시피는 15분 안에 만들 수 있는 초보자용 집밥 메뉴입니다. 재료, 도구, 조리 순서, 복구 팁을 한 장에 정리한 자체 제작 이미지입니다.</desc>
  <rect width="1600" height="900" fill="#fff8ef" />
  <rect x="22" y="22" width="1556" height="856" rx="36" fill="#fffdf8" stroke="#ead7c6" stroke-width="3" />

  <g>
    <rect x="48" y="58" width="485" height="405" rx="30" fill="#ffe6d9" />
    <circle cx="291" cy="246" r="142" fill="#ffffff" opacity="0.92" />
    <ellipse cx="291" cy="271" rx="168" ry="92" fill="#d94b2b" opacity="0.86" />
    <ellipse cx="291" cy="246" rx="142" ry="73" fill="#fff4d9" opacity="0.95" />
    <circle cx="248" cy="229" r="19" fill="#5b2017" opacity="0.35" />
    <circle cx="304" cy="258" r="16" fill="#5b2017" opacity="0.30" />
    <circle cx="353" cy="231" r="21" fill="#ffffff" opacity="0.65" />
    <path d="M173 170 C239 117, 346 118, 416 169" fill="none" stroke="#ffffff" stroke-width="18" stroke-linecap="round" opacity="0.55" />
    <text x="80" y="115" font-size="56" font-weight="950" fill="#5b2017">냉국수</text>
    <text x="82" y="164" font-size="24" font-weight="800" fill="#513f34">냉국수 레시피는 15분 안에 만들</text>
<text x="82" y="194" font-size="24" font-weight="800" fill="#513f34"> 수 있는 초보자용 집밥 메뉴입니</text>
<text x="82" y="224" font-size="24" font-weight="800" fill="#513f34">다.</text>
    
  <rect x="82" y="398" width="118" height="42" rx="21" fill="#ffffff" stroke="#e2c6ad" />
  <text x="141" y="426" text-anchor="middle" font-size="20" font-weight="800" fill="#5b2017">15분</text>

    
  <rect x="215" y="398" width="128" height="42" rx="21" fill="#ffffff" stroke="#e2c6ad" />
  <text x="279" y="426" text-anchor="middle" font-size="20" font-weight="800" fill="#5b2017">천천히 가능</text>

    
  <rect x="358" y="398" width="136" height="42" rx="21" fill="#ffffff" stroke="#e2c6ad" />
  <text x="426" y="426" text-anchor="middle" font-size="20" font-weight="800" fill="#5b2017">2인분</text>

  </g>

  <text x="580" y="93" font-size="36" font-weight="950" fill="#2a211a">1. 재료 준비</text>
  <text x="1225" y="93" font-size="36" font-weight="950" fill="#2a211a">2. 조리도구</text>
  
    <g>
      <rect x="595" y="160" width="134" height="92" rx="18" fill="#fffaf4" stroke="#ead7c6" />
      <circle cx="627" cy="191" r="18" fill="#ffe6d9" stroke="#d94b2b" stroke-width="3" />
      <path d="M618 193 C623 184, 635 184, 638 193 C634 203, 622 203, 618 193Z" fill="#d94b2b" opacity="0.72" />
      <text x="662" y="194" text-anchor="middle" font-size="19" font-weight="900" fill="#5b2017">소면</text>
      <text x="662" y="225" text-anchor="middle" font-size="16" font-weight="700" fill="#735f50">1인분</text>
    </g>
  

    <g>
      <rect x="749" y="160" width="134" height="92" rx="18" fill="#fffaf4" stroke="#ead7c6" />
      <circle cx="781" cy="191" r="18" fill="#ffe6d9" stroke="#d94b2b" stroke-width="3" />
      <path d="M772 193 C777 184, 789 184, 792 193 C788 203, 776 203, 772 193Z" fill="#d94b2b" opacity="0.72" />
      <text x="816" y="194" text-anchor="middle" font-size="19" font-weight="900" fill="#5b2017">시판 냉면육수</text>
      <text x="816" y="225" text-anchor="middle" font-size="16" font-weight="700" fill="#735f50">1봉</text>
    </g>
  
  
    <g>
      <rect x="1225" y="160" width="270" height="55" rx="16" fill="#fffaf4" stroke="#ead7c6" />
      <circle cx="1256" cy="187" r="14" fill="#ffe6d9" stroke="#d94b2b" stroke-width="3" />
      <text x="1283" y="195" font-size="21" font-weight="850" fill="#5b2017">냄비</text>
    </g>
  

    <g>
      <rect x="1225" y="233" width="270" height="55" rx="16" fill="#fffaf4" stroke="#ead7c6" />
      <circle cx="1256" cy="260" r="14" fill="#ffe6d9" stroke="#d94b2b" stroke-width="3" />
      <text x="1283" y="268" font-size="21" font-weight="850" fill="#5b2017">국자</text>
    </g>
  

    <g>
      <rect x="1225" y="306" width="270" height="55" rx="16" fill="#fffaf4" stroke="#ead7c6" />
      <circle cx="1256" cy="333" r="14" fill="#ffe6d9" stroke="#d94b2b" stroke-width="3" />
      <text x="1283" y="341" font-size="21" font-weight="850" fill="#5b2017">그릇</text>
    </g>
  

  <rect x="580" y="400" width="915" height="63" rx="20" fill="#fff2da" stroke="#ead7c6" />
  <text x="606" y="440" font-size="22" font-weight="850" fill="#5a483c">눈으로 확인: 소면이 차갑고 서로 뭉치지 않으며 육수에 반쯤 잠겨 있습니다.</text>

  <text x="48" y="496" font-size="38" font-weight="950" fill="#2a211a">3. 조리 순서</text>
  
    <g>
      <rect x="48" y="515" width="465" height="125" rx="22" fill="#fffdf8" stroke="#ead7c6" />
      <circle cx="90" cy="555" r="25" fill="#d94b2b" />
      <text x="90" y="564" text-anchor="middle" font-size="28" font-weight="950" fill="#ffffff">1</text>
      <text x="131" y="551" font-size="24" font-weight="950" fill="#5b2017">소면 삶기</text>
      <text x="131" y="585" font-size="18" font-weight="700" fill="#4b4038">냄비에 물을 넉넉히 끓이고 소면 1인분을 포장</text>
<text x="131" y="607.5" font-size="18" font-weight="700" fill="#4b4038"> 시간대로 삶습니다.</text>
      <text x="388" y="618" font-size="17" font-weight="850" fill="#7f6b5b">중불 · 4분</text>
    </g>
  

    <g>
      <rect x="553" y="515" width="465" height="125" rx="22" fill="#fffdf8" stroke="#ead7c6" />
      <circle cx="595" cy="555" r="25" fill="#d94b2b" />
      <text x="595" y="564" text-anchor="middle" font-size="28" font-weight="950" fill="#ffffff">2</text>
      <text x="636" y="551" font-size="24" font-weight="950" fill="#5b2017">찬물에 헹구기</text>
      <text x="636" y="585" font-size="18" font-weight="700" fill="#4b4038">삶은 면을 체에 밭쳐 찬물로 2번 헹구고 손으</text>
<text x="636" y="607.5" font-size="18" font-weight="700" fill="#4b4038">로 가볍게 비벼 전분기를 빼세요.</text>
      <text x="893" y="618" font-size="17" font-weight="850" fill="#7f6b5b">불 없음 · 2분</text>
    </g>
  

    <g>
      <rect x="1058" y="515" width="465" height="125" rx="22" fill="#fffdf8" stroke="#ead7c6" />
      <circle cx="1100" cy="555" r="25" fill="#d94b2b" />
      <text x="1100" y="564" text-anchor="middle" font-size="28" font-weight="950" fill="#ffffff">3</text>
      <text x="1141" y="551" font-size="24" font-weight="950" fill="#5b2017">육수 붓기</text>
      <text x="1141" y="585" font-size="18" font-weight="700" fill="#4b4038">그릇에 면을 담고 차가운 냉면육수 1봉을 붓습</text>
<text x="1141" y="607.5" font-size="18" font-weight="700" fill="#4b4038">니다.</text>
      <text x="1398" y="618" font-size="17" font-weight="850" fill="#7f6b5b">불 없음 · 1분</text>
    </g>
  

    <g>
      <rect x="48" y="663" width="465" height="125" rx="22" fill="#fffdf8" stroke="#ead7c6" />
      <circle cx="90" cy="703" r="25" fill="#d94b2b" />
      <text x="90" y="712" text-anchor="middle" font-size="28" font-weight="950" fill="#ffffff">4</text>
      <text x="131" y="699" font-size="24" font-weight="950" fill="#5b2017">고명 올리기</text>
      <text x="131" y="733" font-size="18" font-weight="700" fill="#4b4038">오이나 참깨가 있으면 올리고 한입 맛본 뒤 싱</text>
<text x="131" y="755.5" font-size="18" font-weight="700" fill="#4b4038">거우면 간장 1작은술만 더합니다.</text>
      <text x="388" y="766" font-size="17" font-weight="850" fill="#7f6b5b">불 없음 · 1분</text>
    </g>
  

  <g>
    <rect x="48" y="810" width="720" height="48" rx="18" fill="#f6fbf0" stroke="#d6e7c9" />
    <text x="75" y="841" font-size="20" font-weight="900" fill="#456b2c">망했어요? 조금 단단하면 30초만 더 삶으세요.</text>
    <rect x="790" y="810" width="760" height="48" rx="18" fill="#fff7e8" stroke="#ead7c6" />
    <text x="817" y="841" font-size="20" font-weight="900" fill="#6f4c20">집밥노트 자체 제작 · 외부 사진/캐릭터/브랜드 미사용</text>
  </g>
</svg>
