<?xml version="1.0" encoding="UTF-8"?>
<svg xmlns="http://www.w3.org/2000/svg" width="1200" height="900" viewBox="0 0 1200 900" role="img" aria-labelledby="title desc">
  <title id="title">어묵김밥 어묵김밥</title>
  <desc id="desc">어묵김밥 레시피는 15분 안에 만들 수 있는 초보자용 집밥 메뉴입니다. 어묵김밥 장면 이미지입니다. 외부 사진, 브랜드, 캐릭터를 사용하지 않은 집밥노트 자체 제작 SVG입니다.</desc>
  <defs>
    <radialGradient id="warmBg" cx="50%" cy="18%" r="78%">
      <stop offset="0%" stop-color="#fffdf8"/>
      <stop offset="100%" stop-color="#eff8f4"/>
    </radialGradient>
    <filter id="softShadow" x="-20%" y="-20%" width="140%" height="140%">
      <feDropShadow dx="0" dy="10" stdDeviation="14" flood-color="#5b3219" flood-opacity="0.16"/>
    </filter>
  </defs>
  <rect width="1200" height="900" fill="url(#warmBg)"/>
  <rect x="14" y="14" width="1172" height="872" rx="20" fill="#fffdf8" opacity="0.88" stroke="#e6cda8"/>
  
  <g>
    <rect x="42" y="34" width="108" height="66" rx="20" fill="#df321c"/>
    <path d="M143 68 L171 52 L171 84 Z" fill="#df321c"/>
    <text x="96" y="78" text-anchor="middle" font-size="34" font-weight="950" fill="#fff">1/7</text>
  </g>

  <text x="600" y="74" text-anchor="middle" font-size="46" font-weight="950" fill="#1e1510">어묵김밥</text>
  <text x="600" y="118" text-anchor="middle" font-size="24" font-weight="850" fill="#48ae8c">요리 초보도 따라 할 수 있는 집밥노트 대표 이미지입니다.</text>
  <g fill="#173d34" opacity="0.96">
    <text x="600" y="210" text-anchor="middle" font-size="92" font-weight="950" fill="#173d34">어묵김밥</text>
    <rect x="390" y="240" width="420" height="48" rx="24" fill="#48ae8c"/>
    <text x="600" y="272" text-anchor="middle" font-size="23" font-weight="950" fill="#fff">초보 가능 · 15분 · 1인분</text>
    
    <g transform="translate(600 555) scale(1.18)" filter="url(#softShadow)">
      <ellipse cx="0" cy="118" rx="250" ry="58" fill="#4b2b1e" opacity="0.16"/>
      <ellipse cx="0" cy="20" rx="255" ry="155" fill="#1e1b19"/>
      <ellipse cx="0" cy="5" rx="218" ry="124" fill="#fff4d9"/>
      <ellipse cx="0" cy="8" rx="196" ry="103" fill="#48ae8c" opacity="0.78"/>
      <ellipse cx="-12" cy="2" rx="158" ry="80" fill="#fff6de" opacity="0.98"/>
      
      <circle cx="55.0" cy="0.0" r="10" fill="#f7f0dc" opacity="0.76"/><circle cx="71.1" cy="15.7" r="13" fill="#173d34" opacity="0.76"/><circle cx="70.0" cy="38.2" r="16" fill="#d33b21" opacity="0.76"/><circle cx="46.3" cy="25.9" r="19" fill="#7cbf62" opacity="0.76"/><circle cx="0.0" cy="41.0" r="10" fill="#d33b21" opacity="0.76"/><circle cx="-29.5" cy="49.9" r="13" fill="#f7f0dc" opacity="0.76"/><circle cx="-70.0" cy="19.8" r="16" fill="#7cbf62" opacity="0.76"/><circle cx="-111.8" cy="15.7" r="19" fill="#173d34" opacity="0.76"/><circle cx="-55.0" cy="0.0" r="10" fill="#d33b21" opacity="0.76"/><circle cx="-71.1" cy="-10.7" r="13" fill="#7cbf62" opacity="0.76"/><circle cx="-70.0" cy="-29.0" r="16" fill="#f7f0dc" opacity="0.76"/><circle cx="-46.3" cy="-49.9" r="19" fill="#173d34" opacity="0.76"/><circle cx="-0.0" cy="-28.0" r="10" fill="#7cbf62" opacity="0.76"/><circle cx="29.5" cy="-37.9" r="13" fill="#173d34" opacity="0.76"/><circle cx="70.0" cy="-38.2" r="16" fill="#d33b21" opacity="0.76"/><circle cx="111.8" cy="-10.7" r="19" fill="#f7f0dc" opacity="0.76"/>
      
    </g>
  
    <rect x="165" y="782" width="870" height="70" rx="22" fill="#fff8ed" stroke="#e4cba7"/>
    <text x="600" y="826" text-anchor="middle" font-size="25" font-weight="850" fill="#5b3e2f">어묵김밥 레시피는 15분 안에 만들 수 있는 초보자용 집밥 메뉴입니다.</text>
  </g>
</svg>
