<?xml version="1.0" encoding="UTF-8"?>
<svg xmlns="http://www.w3.org/2000/svg" width="1200" height="900" viewBox="0 0 1200 900" role="img" aria-labelledby="title desc">
  <title id="title">냉국수 재료 준비 (2인분)</title>
  <desc id="desc">냉국수 레시피는 15분 안에 만들 수 있는 초보자용 집밥 메뉴입니다. 재료 준비 (2인분) 장면 이미지입니다. 외부 사진, 브랜드, 캐릭터를 사용하지 않은 집밥노트 자체 제작 SVG입니다.</desc>
  <defs>
    <radialGradient id="warmBg" cx="50%" cy="18%" r="78%">
      <stop offset="0%" stop-color="#fffdf8"/>
      <stop offset="100%" stop-color="#fff0e6"/>
    </radialGradient>
    <filter id="softShadow" x="-20%" y="-20%" width="140%" height="140%">
      <feDropShadow dx="0" dy="10" stdDeviation="14" flood-color="#5b3219" flood-opacity="0.16"/>
    </filter>
  </defs>
  <rect width="1200" height="900" fill="url(#warmBg)"/>
  <rect x="14" y="14" width="1172" height="872" rx="20" fill="#fffdf8" opacity="0.88" stroke="#e6cda8"/>
  
  <g>
    <rect x="42" y="34" width="108" height="66" rx="20" fill="#df321c"/>
    <path d="M143 68 L171 52 L171 84 Z" fill="#df321c"/>
    <text x="96" y="78" text-anchor="middle" font-size="34" font-weight="950" fill="#fff">2/7</text>
  </g>

  <text x="600" y="74" text-anchor="middle" font-size="46" font-weight="950" fill="#1e1510">재료 준비 (2인분)</text>
  <text x="600" y="118" text-anchor="middle" font-size="24" font-weight="850" fill="#d94324">냉국수에 필요한 재료입니다.</text>
  <g fill="#551d12" opacity="0.96">
    <rect x="36" y="150" width="1128" height="622" rx="20" fill="#fffaf3" stroke="#e7d3bb"/>
    <rect x="62" y="173" width="118" height="44" rx="12" fill="#d94324"/>
    <text x="121" y="203" text-anchor="middle" font-size="23" font-weight="950" fill="#fff">재료</text>
    
    <g>
      <rect x="70" y="246" width="122" height="184" rx="18" fill="#fffaf3" stroke="#e7d3bb"/>
      <ellipse cx="131" cy="298" rx="42.699999999999996" ry="29.279999999999998" fill="hsl(0 75% 54%)" opacity="0.88"/>
      <ellipse cx="131" cy="288" rx="45.14" ry="24.400000000000002" fill="#ffffff" opacity="0.62"/>
      <circle cx="113.92" cy="296" r="9.76" fill="#fff6d0" opacity="0.78"/>
      <circle cx="138.32" cy="309" r="8.540000000000001" fill="#5d8f36" opacity="0.68"/>
      <text x="131" y="390" text-anchor="middle" font-size="22" font-weight="950" fill="#251b14">소면</text>
      <text x="131" y="420" text-anchor="middle" font-size="17" font-weight="800" fill="#6f5a49">1인분</text>
    </g>
  

    <g>
      <rect x="226" y="246" width="122" height="184" rx="18" fill="#fffaf3" stroke="#e7d3bb"/>
      <ellipse cx="287" cy="298" rx="42.699999999999996" ry="29.279999999999998" fill="hsl(47 75% 54%)" opacity="0.88"/>
      <ellipse cx="287" cy="288" rx="45.14" ry="24.400000000000002" fill="#ffffff" opacity="0.62"/>
      <circle cx="269.92" cy="296" r="9.76" fill="#fff6d0" opacity="0.78"/>
      <circle cx="294.32" cy="309" r="8.540000000000001" fill="#5d8f36" opacity="0.68"/>
      <text x="287" y="390" text-anchor="middle" font-size="22" font-weight="950" fill="#251b14">시판 냉면육수</text>
      <text x="287" y="420" text-anchor="middle" font-size="17" font-weight="800" fill="#6f5a49">1봉</text>
    </g>
  

    <g>
      <rect x="382" y="246" width="122" height="184" rx="18" fill="#fffaf3" stroke="#e7d3bb"/>
      <ellipse cx="443" cy="298" rx="42.699999999999996" ry="29.279999999999998" fill="hsl(94 75% 54%)" opacity="0.88"/>
      <ellipse cx="443" cy="288" rx="45.14" ry="24.400000000000002" fill="#ffffff" opacity="0.62"/>
      <circle cx="425.92" cy="296" r="9.76" fill="#fff6d0" opacity="0.78"/>
      <circle cx="450.32" cy="309" r="8.540000000000001" fill="#5d8f36" opacity="0.68"/>
      <text x="443" y="390" text-anchor="middle" font-size="22" font-weight="950" fill="#251b14">얼음</text>
      <text x="443" y="420" text-anchor="middle" font-size="17" font-weight="800" fill="#6f5a49">1/2컵</text>
    </g>
  

    <g>
      <rect x="538" y="246" width="122" height="184" rx="18" fill="#fffaf3" stroke="#e7d3bb"/>
      <ellipse cx="599" cy="298" rx="42.699999999999996" ry="29.279999999999998" fill="hsl(141 75% 54%)" opacity="0.88"/>
      <ellipse cx="599" cy="288" rx="45.14" ry="24.400000000000002" fill="#ffffff" opacity="0.62"/>
      <circle cx="581.92" cy="296" r="9.76" fill="#fff6d0" opacity="0.78"/>
      <circle cx="606.32" cy="309" r="8.540000000000001" fill="#5d8f36" opacity="0.68"/>
      <text x="599" y="390" text-anchor="middle" font-size="22" font-weight="950" fill="#251b14">오이</text>
      <text x="599" y="420" text-anchor="middle" font-size="17" font-weight="800" fill="#6f5a49">1/4개</text>
    </g>
  

    <g>
      <rect x="694" y="246" width="122" height="184" rx="18" fill="#fffaf3" stroke="#e7d3bb"/>
      <ellipse cx="755" cy="298" rx="42.699999999999996" ry="29.279999999999998" fill="hsl(188 75% 54%)" opacity="0.88"/>
      <ellipse cx="755" cy="288" rx="45.14" ry="24.400000000000002" fill="#ffffff" opacity="0.62"/>
      <circle cx="737.92" cy="296" r="9.76" fill="#fff6d0" opacity="0.78"/>
      <circle cx="762.32" cy="309" r="8.540000000000001" fill="#5d8f36" opacity="0.68"/>
      <text x="755" y="390" text-anchor="middle" font-size="22" font-weight="950" fill="#251b14">참깨</text>
      <text x="755" y="420" text-anchor="middle" font-size="17" font-weight="800" fill="#6f5a49">1작은술</text>
    </g>
  
    <rect x="150" y="800" width="900" height="52" rx="15" fill="#fff7df" stroke="#e4cba7"/>
    <text x="600" y="834" text-anchor="middle" font-size="22" font-weight="850" fill="#6a4128">TIP! 포장지 삶는 시간을 먼저 확인합니다.</text>
  </g>
</svg>
